<?xml version="1.0" encoding="ISO-8859-1" standalone="no"?>
<!DOCTYPE svg PUBLIC "-//W3C//DTD SVG 1.1//EN" "http://www.w3.org/Graphics/SVG/1.1/DTD/svg11.dtd">
<svg version="1.1" baseProfile="full" id="body" width="19.812cm" height="19.812cm" viewBox="0 0 1 1" preserveAspectRatio="none" xmlns="http://www.w3.org/2000/svg" xmlns:xlink="http://www.w3.org/1999/xlink" xmlns:ev="http://www.w3.org/2001/xml-events">
<title>SVG drawing</title>
<desc>This was produced by version 4.4 of GNU libplot, a free library for exporting 2-D vector graphics.</desc>
<rect id="background" x="0" y="0" width="1" height="1" stroke="none" fill="white"/>
<g id="content" transform="translate(0.14062,0.30563) scale(1,-1) scale(0.000625) " xml:space="preserve" stroke="black" stroke-linecap="butt" stroke-linejoin="miter" stroke-miterlimit="10.433" stroke-dasharray="none" stroke-dashoffset="0" stroke-opacity="1" fill="none" fill-rule="evenodd" fill-opacity="1" font-style="normal" font-variant="normal" font-weight="normal" font-stretch="normal" font-size-adjust="none" letter-spacing="normal" word-spacing="normal" text-anchor="start">
<line x1="20" y1="0" x2="30" y2="0" stroke-width="1.8824" />
<text transform="translate(25,2.52) scale(1,-1) scale(0.56) " font-family="Helvetica,sans-serif" font-size="20px" stroke="none" fill="black" >8am</text>
<line x1="30" y1="0" x2="1130" y2="0" stroke-width="1.8824" stroke-dasharray="2.5, 7.5"/>
<line x1="20" y1="-120" x2="30" y2="-120" stroke-width="1.8824" />
<text transform="translate(25,-117.48) scale(1,-1) scale(0.56) " font-family="Helvetica,sans-serif" font-size="20px" stroke="none" fill="black" >10am</text>
<line x1="30" y1="-120" x2="1130" y2="-120" stroke-width="1.8824" stroke-dasharray="2.5, 7.5"/>
<line x1="20" y1="-240" x2="30" y2="-240" stroke-width="1.8824" />
<text transform="translate(25,-237.48) scale(1,-1) scale(0.56) " font-family="Helvetica,sans-serif" font-size="20px" stroke="none" fill="black" >12pm</text>
<line x1="30" y1="-240" x2="1130" y2="-240" stroke-width="1.8824" stroke-dasharray="2.5, 7.5"/>
<line x1="20" y1="-360" x2="30" y2="-360" stroke-width="1.8824" />
<text transform="translate(25,-357.48) scale(1,-1) scale(0.56) " font-family="Helvetica,sans-serif" font-size="20px" stroke="none" fill="black" >2pm</text>
<line x1="30" y1="-360" x2="1130" y2="-360" stroke-width="1.8824" stroke-dasharray="2.5, 7.5"/>
<line x1="20" y1="-480" x2="30" y2="-480" stroke-width="1.8824" />
<text transform="translate(25,-477.48) scale(1,-1) scale(0.56) " font-family="Helvetica,sans-serif" font-size="20px" stroke="none" fill="black" >4pm</text>
<line x1="30" y1="-480" x2="1130" y2="-480" stroke-width="1.8824" stroke-dasharray="2.5, 7.5"/>
<line x1="20" y1="-600" x2="30" y2="-600" stroke-width="1.8824" />
<text transform="translate(25,-597.48) scale(1,-1) scale(0.56) " font-family="Helvetica,sans-serif" font-size="20px" stroke="none" fill="black" >6pm</text>
<line x1="30" y1="-600" x2="1130" y2="-600" stroke-width="1.8824" stroke-dasharray="2.5, 7.5"/>
<line x1="20" y1="-720" x2="30" y2="-720" stroke-width="1.8824" />
<text transform="translate(25,-717.48) scale(1,-1) scale(0.56) " font-family="Helvetica,sans-serif" font-size="20px" stroke="none" fill="black" >8pm</text>
<line x1="30" y1="-720" x2="1130" y2="-720" stroke-width="1.8824" stroke-dasharray="2.5, 7.5"/>
<line x1="20" y1="-840" x2="30" y2="-840" stroke-width="1.8824" />
<text transform="translate(25,-837.48) scale(1,-1) scale(0.56) " font-family="Helvetica,sans-serif" font-size="20px" stroke="none" fill="black" >10pm</text>
<line x1="30" y1="-840" x2="1130" y2="-840" stroke-width="1.8824" stroke-dasharray="2.5, 7.5"/>
<line x1="20" y1="-960" x2="30" y2="-960" stroke-width="1.8824" />
<text transform="translate(25,-957.48) scale(1,-1) scale(0.56) " font-family="Helvetica,sans-serif" font-size="20px" stroke="none" fill="black" >12am</text>
<line x1="30" y1="-960" x2="1130" y2="-960" stroke-width="1.8824" stroke-dasharray="2.5, 7.5"/>
<rect x="150" y="115" width="20" height="30" stroke-width="1.8824" />
<text transform="translate(155.34,126.05) scale(1,-1) scale(0.56) " font-family="Helvetica,sans-serif" font-size="20px" stroke="none" fill="black" >M</text>
<rect x="300" y="115" width="20" height="30" stroke-width="1.8824" />
<text transform="translate(306.58,126.05) scale(1,-1) scale(0.56) " font-family="Helvetica,sans-serif" font-size="20px" stroke="none" fill="black" >T</text>
<rect x="450" y="115" width="20" height="30" stroke-width="1.8824" />
<text transform="translate(454.71,126.05) scale(1,-1) scale(0.56) " font-family="Helvetica,sans-serif" font-size="20px" stroke="none" fill="black" >W</text>
<rect x="600" y="115" width="20" height="30" stroke-width="1.8824" />
<text transform="translate(606.58,126.05) scale(1,-1) scale(0.56) " font-family="Helvetica,sans-serif" font-size="20px" stroke="none" fill="black" >T</text>
<rect x="750" y="115" width="20" height="30" stroke-width="1.8824" />
<text transform="translate(756.58,126.05) scale(1,-1) scale(0.56) " font-family="Helvetica,sans-serif" font-size="20px" stroke="none" fill="black" >F</text>
<rect x="900" y="115" width="20" height="30" stroke-width="1.8824" />
<text transform="translate(906.26,126.05) scale(1,-1) scale(0.56) " font-family="Helvetica,sans-serif" font-size="20px" stroke="none" fill="black" >S</text>
<rect x="1050" y="115" width="20" height="30" stroke-width="1.8824" />
<text transform="translate(1056.3,126.05) scale(1,-1) scale(0.56) " font-family="Helvetica,sans-serif" font-size="20px" stroke="none" fill="black" >S</text>
<rect x="95" y="-502" width="130" height="46" stroke-width="1.8824" />
<text transform="translate(117.37,-476.23) scale(1,-1) scale(0.56) " font-family="Helvetica,sans-serif" font-size="20px" stroke="none" fill="black" >Impl Distrib JStar</text>
<text transform="translate(146.62,-489.67) scale(1,-1) scale(0.56) " font-family="Helvetica,sans-serif" font-size="20px" stroke="none" fill="black" >Chap</text>
<rect x="95" y="-528" width="130" height="26" stroke-width="1.8824" />
<text transform="translate(112.08,-518.95) scale(1,-1) scale(0.56) " font-family="Helvetica,sans-serif" font-size="20px" stroke="none" fill="black" >Misc Tech Reading</text>
<rect x="95" y="-606" width="130" height="19" stroke-width="1.8824" />
<text transform="translate(117.37,-593.73) scale(1,-1) scale(0.56) " font-family="Helvetica,sans-serif" font-size="20px" stroke="none" fill="black" >Impl Distrib JStar</text>
<text transform="translate(146.62,-607.17) scale(1,-1) scale(0.56) " font-family="Helvetica,sans-serif" font-size="20px" stroke="none" fill="black" >Chap</text>
<rect x="95" y="-628" width="130" height="15" stroke-width="1.8824" />
<text transform="translate(117.37,-617.73) scale(1,-1) scale(0.56) " font-family="Helvetica,sans-serif" font-size="20px" stroke="none" fill="black" >Impl Distrib JStar</text>
<text transform="translate(146.62,-631.17) scale(1,-1) scale(0.56) " font-family="Helvetica,sans-serif" font-size="20px" stroke="none" fill="black" >Chap</text>
<rect x="95" y="-647" width="130" height="18" stroke-width="1.8824" />
<text transform="translate(112.08,-641.95) scale(1,-1) scale(0.56) " font-family="Helvetica,sans-serif" font-size="20px" stroke="none" fill="black" >Misc Tech Reading</text>
<rect x="95" y="-783" width="130" height="26" stroke-width="1.8824" />
<text transform="translate(142.57,-773.95) scale(1,-1) scale(0.56) " font-family="Helvetica,sans-serif" font-size="20px" stroke="none" fill="black" >Breaks</text>
<rect x="95" y="-805" width="130" height="22" stroke-width="1.8824" />
<text transform="translate(117.37,-791.23) scale(1,-1) scale(0.56) " font-family="Helvetica,sans-serif" font-size="20px" stroke="none" fill="black" >Impl Distrib JStar</text>
<text transform="translate(146.62,-804.67) scale(1,-1) scale(0.56) " font-family="Helvetica,sans-serif" font-size="20px" stroke="none" fill="black" >Chap</text>
<rect x="95" y="-1091" width="130" height="278" stroke-width="1.8824" />
<text transform="translate(142.57,-955.95) scale(1,-1) scale(0.56) " font-family="Helvetica,sans-serif" font-size="20px" stroke="none" fill="black" >Breaks</text>
<rect x="245" y="-169" width="130" height="41" stroke-width="1.8824" />
<text transform="translate(292.57,-152.45) scale(1,-1) scale(0.56) " font-family="Helvetica,sans-serif" font-size="20px" stroke="none" fill="black" >Breaks</text>
<rect x="245" y="-290" width="130" height="77" stroke-width="1.8824" />
<text transform="translate(292.57,-255.45) scale(1,-1) scale(0.56) " font-family="Helvetica,sans-serif" font-size="20px" stroke="none" fill="black" >Breaks</text>
<rect x="245" y="-421" width="130" height="58" stroke-width="1.8824" />
<text transform="translate(267.37,-389.23) scale(1,-1) scale(0.56) " font-family="Helvetica,sans-serif" font-size="20px" stroke="none" fill="black" >Impl Distrib JStar</text>
<text transform="translate(296.62,-402.67) scale(1,-1) scale(0.56) " font-family="Helvetica,sans-serif" font-size="20px" stroke="none" fill="black" >Chap</text>
<rect x="245" y="-458" width="130" height="36" stroke-width="1.8824" />
<text transform="translate(267.37,-437.23) scale(1,-1) scale(0.56) " font-family="Helvetica,sans-serif" font-size="20px" stroke="none" fill="black" >Impl Distrib JStar</text>
<text transform="translate(296.62,-450.67) scale(1,-1) scale(0.56) " font-family="Helvetica,sans-serif" font-size="20px" stroke="none" fill="black" >Chap</text>
<rect x="245" y="-476" width="130" height="18" stroke-width="1.8824" />
<text transform="translate(292.57,-470.95) scale(1,-1) scale(0.56) " font-family="Helvetica,sans-serif" font-size="20px" stroke="none" fill="black" >Breaks</text>
<rect x="245" y="-525" width="130" height="21" stroke-width="1.8824" />
<text transform="translate(267.37,-511.73) scale(1,-1) scale(0.56) " font-family="Helvetica,sans-serif" font-size="20px" stroke="none" fill="black" >Impl Distrib JStar</text>
<text transform="translate(296.62,-525.17) scale(1,-1) scale(0.56) " font-family="Helvetica,sans-serif" font-size="20px" stroke="none" fill="black" >Chap</text>
<rect x="245" y="-553" width="130" height="17" stroke-width="1.8824" />
<text transform="translate(262.08,-548.45) scale(1,-1) scale(0.56) " font-family="Helvetica,sans-serif" font-size="20px" stroke="none" fill="black" >Misc Tech Reading</text>
<rect x="245" y="-682" width="130" height="52" stroke-width="1.8824" />
<text transform="translate(267.37,-653.23) scale(1,-1) scale(0.56) " font-family="Helvetica,sans-serif" font-size="20px" stroke="none" fill="black" >Impl Distrib JStar</text>
<text transform="translate(296.62,-666.67) scale(1,-1) scale(0.56) " font-family="Helvetica,sans-serif" font-size="20px" stroke="none" fill="black" >Chap</text>
<rect x="245" y="-719" width="130" height="26" stroke-width="1.8824" />
<text transform="translate(267.37,-703.23) scale(1,-1) scale(0.56) " font-family="Helvetica,sans-serif" font-size="20px" stroke="none" fill="black" >Impl Distrib JStar</text>
<text transform="translate(296.62,-716.67) scale(1,-1) scale(0.56) " font-family="Helvetica,sans-serif" font-size="20px" stroke="none" fill="black" >Chap</text>
<rect x="245" y="-757" width="130" height="25" stroke-width="1.8824" />
<text transform="translate(262.08,-748.45) scale(1,-1) scale(0.56) " font-family="Helvetica,sans-serif" font-size="20px" stroke="none" fill="black" >Misc Tech Reading</text>
<rect x="245" y="-842" width="130" height="24" stroke-width="1.8824" />
<text transform="translate(262.08,-833.95) scale(1,-1) scale(0.56) " font-family="Helvetica,sans-serif" font-size="20px" stroke="none" fill="black" >Misc Tech Reading</text>
<rect x="245" y="-881" width="130" height="39" stroke-width="1.8824" />
<text transform="translate(292.57,-865.45) scale(1,-1) scale(0.56) " font-family="Helvetica,sans-serif" font-size="20px" stroke="none" fill="black" >Breaks</text>
<rect x="245" y="-1076" width="130" height="183" stroke-width="1.8824" />
<text transform="translate(262.08,-988.45) scale(1,-1) scale(0.56) " font-family="Helvetica,sans-serif" font-size="20px" stroke="none" fill="black" >Misc Tech Reading</text>
<rect x="395" y="342" width="130" height="22" stroke-width="1.8824" />
<text transform="translate(442.57,349.05) scale(1,-1) scale(0.56) " font-family="Helvetica,sans-serif" font-size="20px" stroke="none" fill="black" >Breaks</text>
<rect x="395" y="-312" width="130" height="96" stroke-width="1.8824" />
<text transform="translate(442.57,-267.95) scale(1,-1) scale(0.56) " font-family="Helvetica,sans-serif" font-size="20px" stroke="none" fill="black" >Breaks</text>
<rect x="395" y="-392" width="130" height="55" stroke-width="1.8824" />
<text transform="translate(442.57,-368.45) scale(1,-1) scale(0.56) " font-family="Helvetica,sans-serif" font-size="20px" stroke="none" fill="black" >Breaks</text>
<rect x="395" y="-412" width="130" height="20" stroke-width="1.8824" />
<text transform="translate(442.57,-405.95) scale(1,-1) scale(0.56) " font-family="Helvetica,sans-serif" font-size="20px" stroke="none" fill="black" >Breaks</text>
<rect x="395" y="-433" width="130" height="21" stroke-width="1.8824" />
<text transform="translate(442.57,-426.45) scale(1,-1) scale(0.56) " font-family="Helvetica,sans-serif" font-size="20px" stroke="none" fill="black" >Breaks</text>
<rect x="395" y="-461" width="130" height="19" stroke-width="1.8824" />
<text transform="translate(442.57,-455.45) scale(1,-1) scale(0.56) " font-family="Helvetica,sans-serif" font-size="20px" stroke="none" fill="black" >Breaks</text>
<rect x="395" y="-496" width="130" height="17" stroke-width="1.8824" />
<text transform="translate(442.57,-491.45) scale(1,-1) scale(0.56) " font-family="Helvetica,sans-serif" font-size="20px" stroke="none" fill="black" >Breaks</text>
<rect x="395" y="-626" width="130" height="123" stroke-width="1.8824" />
<text transform="translate(441.95,-568.45) scale(1,-1) scale(0.56) " font-family="Helvetica,sans-serif" font-size="20px" stroke="none" fill="black" >Chores</text>
<rect x="395" y="-758" width="130" height="51" stroke-width="1.8824" />
<text transform="translate(412.08,-736.45) scale(1,-1) scale(0.56) " font-family="Helvetica,sans-serif" font-size="20px" stroke="none" fill="black" >Misc Tech Reading</text>
<rect x="395" y="-771" width="130" height="13" stroke-width="1.8824" />
<text transform="translate(442.57,-768.45) scale(1,-1) scale(0.56) " font-family="Helvetica,sans-serif" font-size="20px" stroke="none" fill="black" >Breaks</text>
<rect x="395" y="-838" width="130" height="23" stroke-width="1.8824" />
<text transform="translate(417.37,-823.73) scale(1,-1) scale(0.56) " font-family="Helvetica,sans-serif" font-size="20px" stroke="none" fill="black" >Impl Distrib JStar</text>
<text transform="translate(446.62,-837.17) scale(1,-1) scale(0.56) " font-family="Helvetica,sans-serif" font-size="20px" stroke="none" fill="black" >Chap</text>
<rect x="395" y="-879" width="130" height="19" stroke-width="1.8824" />
<text transform="translate(417.37,-866.73) scale(1,-1) scale(0.56) " font-family="Helvetica,sans-serif" font-size="20px" stroke="none" fill="black" >Impl Distrib JStar</text>
<text transform="translate(446.62,-880.17) scale(1,-1) scale(0.56) " font-family="Helvetica,sans-serif" font-size="20px" stroke="none" fill="black" >Chap</text>
<rect x="545" y="-375" width="130" height="13" stroke-width="1.8824" />
<text transform="translate(562.08,-372.45) scale(1,-1) scale(0.56) " font-family="Helvetica,sans-serif" font-size="20px" stroke="none" fill="black" >Misc Tech Reading</text>
<rect x="545" y="-402" width="130" height="26" stroke-width="1.8824" />
<text transform="translate(567.37,-386.23) scale(1,-1) scale(0.56) " font-family="Helvetica,sans-serif" font-size="20px" stroke="none" fill="black" >Impl Distrib JStar</text>
<text transform="translate(596.62,-399.67) scale(1,-1) scale(0.56) " font-family="Helvetica,sans-serif" font-size="20px" stroke="none" fill="black" >Chap</text>
<rect x="545" y="-416" width="130" height="14" stroke-width="1.8824" />
<text transform="translate(562.08,-412.95) scale(1,-1) scale(0.56) " font-family="Helvetica,sans-serif" font-size="20px" stroke="none" fill="black" >Misc Tech Reading</text>
<rect x="545" y="-482" width="130" height="39" stroke-width="1.8824" />
<text transform="translate(567.37,-459.73) scale(1,-1) scale(0.56) " font-family="Helvetica,sans-serif" font-size="20px" stroke="none" fill="black" >Impl Distrib JStar</text>
<text transform="translate(596.62,-473.17) scale(1,-1) scale(0.56) " font-family="Helvetica,sans-serif" font-size="20px" stroke="none" fill="black" >Chap</text>
<rect x="545" y="-525" width="130" height="38" stroke-width="1.8824" />
<text transform="translate(567.37,-503.23) scale(1,-1) scale(0.56) " font-family="Helvetica,sans-serif" font-size="20px" stroke="none" fill="black" >Impl Distrib JStar</text>
<text transform="translate(596.62,-516.67) scale(1,-1) scale(0.56) " font-family="Helvetica,sans-serif" font-size="20px" stroke="none" fill="black" >Chap</text>
<rect x="545" y="-621" width="130" height="44" stroke-width="1.8824" />
<text transform="translate(562.08,-602.95) scale(1,-1) scale(0.56) " font-family="Helvetica,sans-serif" font-size="20px" stroke="none" fill="black" >Misc Tech Reading</text>
<rect x="545" y="-675" width="130" height="54" stroke-width="1.8824" />
<text transform="translate(575.45,-651.95) scale(1,-1) scale(0.56) " font-family="Helvetica,sans-serif" font-size="20px" stroke="none" fill="black" >JStar Chapter</text>
<rect x="995" y="445" width="130" height="24" stroke-width="1.8824" />
<text transform="translate(1042.6,453.05) scale(1,-1) scale(0.56) " font-family="Helvetica,sans-serif" font-size="20px" stroke="none" fill="black" >Breaks</text>
<rect x="995" y="408" width="130" height="22" stroke-width="1.8824" />
<text transform="translate(1042.6,415.05) scale(1,-1) scale(0.56) " font-family="Helvetica,sans-serif" font-size="20px" stroke="none" fill="black" >Breaks</text>
<rect x="995" y="395" width="130" height="13" stroke-width="1.8824" />
<text transform="translate(1039.8,397.55) scale(1,-1) scale(0.56) " font-family="Helvetica,sans-serif" font-size="20px" stroke="none" fill="black" >#MGMT</text>
<rect x="995" y="344" width="130" height="18" stroke-width="1.8824" />
<text transform="translate(1012.1,349.05) scale(1,-1) scale(0.56) " font-family="Helvetica,sans-serif" font-size="20px" stroke="none" fill="black" >Misc Tech Reading</text>
<rect x="995" y="-309" width="130" height="95" stroke-width="1.8824" />
<text transform="translate(1012.1,-265.45) scale(1,-1) scale(0.56) " font-family="Helvetica,sans-serif" font-size="20px" stroke="none" fill="black" >Misc Tech Reading</text>
<rect x="995" y="-364" width="130" height="55" stroke-width="1.8824" />
<text transform="translate(1042.6,-340.45) scale(1,-1) scale(0.56) " font-family="Helvetica,sans-serif" font-size="20px" stroke="none" fill="black" >Breaks</text>
<rect x="995" y="-457" width="130" height="29" stroke-width="1.8824" />
<text transform="translate(1042.6,-446.45) scale(1,-1) scale(0.56) " font-family="Helvetica,sans-serif" font-size="20px" stroke="none" fill="black" >Breaks</text>
<rect x="995" y="-542" width="130" height="40" stroke-width="1.8824" />
<text transform="translate(1042.6,-525.95) scale(1,-1) scale(0.56) " font-family="Helvetica,sans-serif" font-size="20px" stroke="none" fill="black" >Breaks</text>
<rect x="995" y="-597" width="130" height="17" stroke-width="1.8824" />
<text transform="translate(1015.8,-592.45) scale(1,-1) scale(0.56) " font-family="Helvetica,sans-serif" font-size="20px" stroke="none" fill="black" >Conclusions Draft</text>
<rect x="995" y="-701" width="130" height="51" stroke-width="1.8824" />
<text transform="translate(1042.6,-679.45) scale(1,-1) scale(0.56) " font-family="Helvetica,sans-serif" font-size="20px" stroke="none" fill="black" >Breaks</text>
<rect x="995" y="-732" width="130" height="31" stroke-width="1.8824" />
<text transform="translate(1042.6,-720.45) scale(1,-1) scale(0.56) " font-family="Helvetica,sans-serif" font-size="20px" stroke="none" fill="black" >Breaks</text>
<rect x="995" y="-758" width="130" height="25" stroke-width="1.8824" />
<text transform="translate(1043.5,-749.45) scale(1,-1) scale(0.56) " font-family="Helvetica,sans-serif" font-size="20px" stroke="none" fill="black" >Comm</text>
<rect x="995" y="-802" width="130" height="44" stroke-width="1.8824" />
<text transform="translate(1042.6,-783.95) scale(1,-1) scale(0.56) " font-family="Helvetica,sans-serif" font-size="20px" stroke="none" fill="black" >Breaks</text>
<rect x="995" y="-848" width="130" height="27" stroke-width="1.8824" />
<text transform="translate(1015.8,-838.45) scale(1,-1) scale(0.56) " font-family="Helvetica,sans-serif" font-size="20px" stroke="none" fill="black" >Conclusions Draft</text>
<rect x="995" y="-909" width="130" height="27" stroke-width="1.8824" />
<text transform="translate(1042.6,-899.45) scale(1,-1) scale(0.56) " font-family="Helvetica,sans-serif" font-size="20px" stroke="none" fill="black" >Breaks</text>
</g>
</svg>
