<?xml version="1.0" encoding="ISO-8859-1" standalone="no"?>
<!DOCTYPE svg PUBLIC "-//W3C//DTD SVG 1.1//EN" "http://www.w3.org/Graphics/SVG/1.1/DTD/svg11.dtd">
<svg version="1.1" baseProfile="full" id="body" width="19.812cm" height="19.812cm" viewBox="0 0 1 1" preserveAspectRatio="none" xmlns="http://www.w3.org/2000/svg" xmlns:xlink="http://www.w3.org/1999/xlink" xmlns:ev="http://www.w3.org/2001/xml-events">
<title>SVG drawing</title>
<desc>This was produced by version 4.4 of GNU libplot, a free library for exporting 2-D vector graphics.</desc>
<rect id="background" x="0" y="0" width="1" height="1" stroke="none" fill="white"/>
<g id="content" transform="translate(0.14062,0.060937) scale(1,-1) scale(0.000625) " xml:space="preserve" stroke="black" stroke-linecap="butt" stroke-linejoin="miter" stroke-miterlimit="10.433" stroke-dasharray="none" stroke-dashoffset="0" stroke-opacity="1" fill="none" fill-rule="evenodd" fill-opacity="1" font-style="normal" font-variant="normal" font-weight="normal" font-stretch="normal" font-size-adjust="none" letter-spacing="normal" word-spacing="normal" text-anchor="start">
<line x1="20" y1="0" x2="30" y2="0" stroke-width="1.8824" />
<text transform="translate(25,2.52) scale(1,-1) scale(0.56) " font-family="Helvetica,sans-serif" font-size="20px" stroke="none" fill="black" >8am</text>
<line x1="30" y1="0" x2="1130" y2="0" stroke-width="1.8824" stroke-dasharray="2.5, 7.5"/>
<line x1="20" y1="-120" x2="30" y2="-120" stroke-width="1.8824" />
<text transform="translate(25,-117.48) scale(1,-1) scale(0.56) " font-family="Helvetica,sans-serif" font-size="20px" stroke="none" fill="black" >10am</text>
<line x1="30" y1="-120" x2="1130" y2="-120" stroke-width="1.8824" stroke-dasharray="2.5, 7.5"/>
<line x1="20" y1="-240" x2="30" y2="-240" stroke-width="1.8824" />
<text transform="translate(25,-237.48) scale(1,-1) scale(0.56) " font-family="Helvetica,sans-serif" font-size="20px" stroke="none" fill="black" >12pm</text>
<line x1="30" y1="-240" x2="1130" y2="-240" stroke-width="1.8824" stroke-dasharray="2.5, 7.5"/>
<line x1="20" y1="-360" x2="30" y2="-360" stroke-width="1.8824" />
<text transform="translate(25,-357.48) scale(1,-1) scale(0.56) " font-family="Helvetica,sans-serif" font-size="20px" stroke="none" fill="black" >2pm</text>
<line x1="30" y1="-360" x2="1130" y2="-360" stroke-width="1.8824" stroke-dasharray="2.5, 7.5"/>
<line x1="20" y1="-480" x2="30" y2="-480" stroke-width="1.8824" />
<text transform="translate(25,-477.48) scale(1,-1) scale(0.56) " font-family="Helvetica,sans-serif" font-size="20px" stroke="none" fill="black" >4pm</text>
<line x1="30" y1="-480" x2="1130" y2="-480" stroke-width="1.8824" stroke-dasharray="2.5, 7.5"/>
<line x1="20" y1="-600" x2="30" y2="-600" stroke-width="1.8824" />
<text transform="translate(25,-597.48) scale(1,-1) scale(0.56) " font-family="Helvetica,sans-serif" font-size="20px" stroke="none" fill="black" >6pm</text>
<line x1="30" y1="-600" x2="1130" y2="-600" stroke-width="1.8824" stroke-dasharray="2.5, 7.5"/>
<line x1="20" y1="-720" x2="30" y2="-720" stroke-width="1.8824" />
<text transform="translate(25,-717.48) scale(1,-1) scale(0.56) " font-family="Helvetica,sans-serif" font-size="20px" stroke="none" fill="black" >8pm</text>
<line x1="30" y1="-720" x2="1130" y2="-720" stroke-width="1.8824" stroke-dasharray="2.5, 7.5"/>
<line x1="20" y1="-840" x2="30" y2="-840" stroke-width="1.8824" />
<text transform="translate(25,-837.48) scale(1,-1) scale(0.56) " font-family="Helvetica,sans-serif" font-size="20px" stroke="none" fill="black" >10pm</text>
<line x1="30" y1="-840" x2="1130" y2="-840" stroke-width="1.8824" stroke-dasharray="2.5, 7.5"/>
<line x1="20" y1="-960" x2="30" y2="-960" stroke-width="1.8824" />
<text transform="translate(25,-957.48) scale(1,-1) scale(0.56) " font-family="Helvetica,sans-serif" font-size="20px" stroke="none" fill="black" >12am</text>
<line x1="30" y1="-960" x2="1130" y2="-960" stroke-width="1.8824" stroke-dasharray="2.5, 7.5"/>
<rect x="150" y="115" width="20" height="30" stroke-width="1.8824" />
<text transform="translate(155.34,126.05) scale(1,-1) scale(0.56) " font-family="Helvetica,sans-serif" font-size="20px" stroke="none" fill="black" >M</text>
<rect x="300" y="115" width="20" height="30" stroke-width="1.8824" />
<text transform="translate(306.58,126.05) scale(1,-1) scale(0.56) " font-family="Helvetica,sans-serif" font-size="20px" stroke="none" fill="black" >T</text>
<rect x="450" y="115" width="20" height="30" stroke-width="1.8824" />
<text transform="translate(454.71,126.05) scale(1,-1) scale(0.56) " font-family="Helvetica,sans-serif" font-size="20px" stroke="none" fill="black" >W</text>
<rect x="600" y="115" width="20" height="30" stroke-width="1.8824" />
<text transform="translate(606.58,126.05) scale(1,-1) scale(0.56) " font-family="Helvetica,sans-serif" font-size="20px" stroke="none" fill="black" >T</text>
<rect x="750" y="115" width="20" height="30" stroke-width="1.8824" />
<text transform="translate(756.58,126.05) scale(1,-1) scale(0.56) " font-family="Helvetica,sans-serif" font-size="20px" stroke="none" fill="black" >F</text>
<rect x="900" y="115" width="20" height="30" stroke-width="1.8824" />
<text transform="translate(906.26,126.05) scale(1,-1) scale(0.56) " font-family="Helvetica,sans-serif" font-size="20px" stroke="none" fill="black" >S</text>
<rect x="1050" y="115" width="20" height="30" stroke-width="1.8824" />
<text transform="translate(1056.3,126.05) scale(1,-1) scale(0.56) " font-family="Helvetica,sans-serif" font-size="20px" stroke="none" fill="black" >S</text>
<rect x="95" y="-11" width="130" height="116" stroke-width="1.8824" />
<text transform="translate(142.57,43.046) scale(1,-1) scale(0.56) " font-family="Helvetica,sans-serif" font-size="20px" stroke="none" fill="black" >Breaks</text>
<rect x="95" y="-271" width="130" height="147" stroke-width="1.8824" />
<text transform="translate(142.57,-201.45) scale(1,-1) scale(0.56) " font-family="Helvetica,sans-serif" font-size="20px" stroke="none" fill="black" >Breaks</text>
<rect x="95" y="-320" width="130" height="49" stroke-width="1.8824" />
<text transform="translate(142.57,-299.45) scale(1,-1) scale(0.56) " font-family="Helvetica,sans-serif" font-size="20px" stroke="none" fill="black" >Breaks</text>
<rect x="95" y="-392" width="130" height="72" stroke-width="1.8824" />
<text transform="translate(123.9,-359.95) scale(1,-1) scale(0.56) " font-family="Helvetica,sans-serif" font-size="20px" stroke="none" fill="black" >Time Manager</text>
<rect x="95" y="-429" width="130" height="28" stroke-width="1.8824" />
<text transform="translate(117.37,-412.23) scale(1,-1) scale(0.56) " font-family="Helvetica,sans-serif" font-size="20px" stroke="none" fill="black" >Impl Distrib JStar</text>
<text transform="translate(146.62,-425.67) scale(1,-1) scale(0.56) " font-family="Helvetica,sans-serif" font-size="20px" stroke="none" fill="black" >Chap</text>
<rect x="95" y="-484" width="130" height="43" stroke-width="1.8824" />
<text transform="translate(117.37,-459.73) scale(1,-1) scale(0.56) " font-family="Helvetica,sans-serif" font-size="20px" stroke="none" fill="black" >Impl Distrib JStar</text>
<text transform="translate(146.62,-473.17) scale(1,-1) scale(0.56) " font-family="Helvetica,sans-serif" font-size="20px" stroke="none" fill="black" >Chap</text>
<rect x="95" y="-529" width="130" height="28" stroke-width="1.8824" />
<text transform="translate(142.57,-518.95) scale(1,-1) scale(0.56) " font-family="Helvetica,sans-serif" font-size="20px" stroke="none" fill="black" >Breaks</text>
<rect x="95" y="-545" width="130" height="16" stroke-width="1.8824" />
<text transform="translate(142.57,-540.95) scale(1,-1) scale(0.56) " font-family="Helvetica,sans-serif" font-size="20px" stroke="none" fill="black" >Breaks</text>
<rect x="95" y="-597" width="130" height="37" stroke-width="1.8824" />
<text transform="translate(117.37,-575.73) scale(1,-1) scale(0.56) " font-family="Helvetica,sans-serif" font-size="20px" stroke="none" fill="black" >Impl Distrib JStar</text>
<text transform="translate(146.62,-589.17) scale(1,-1) scale(0.56) " font-family="Helvetica,sans-serif" font-size="20px" stroke="none" fill="black" >Chap</text>
<rect x="95" y="-694" width="130" height="96" stroke-width="1.8824" />
<text transform="translate(123.9,-649.95) scale(1,-1) scale(0.56) " font-family="Helvetica,sans-serif" font-size="20px" stroke="none" fill="black" >Daily Routines</text>
<rect x="95" y="-728" width="130" height="34" stroke-width="1.8824" />
<text transform="translate(143.51,-714.95) scale(1,-1) scale(0.56) " font-family="Helvetica,sans-serif" font-size="20px" stroke="none" fill="black" >Comm</text>
<rect x="95" y="-792" width="130" height="39" stroke-width="1.8824" />
<text transform="translate(140.39,-776.45) scale(1,-1) scale(0.56) " font-family="Helvetica,sans-serif" font-size="20px" stroke="none" fill="black" >Jogging</text>
<rect x="95" y="-814" width="130" height="20" stroke-width="1.8824" />
<text transform="translate(112.08,-807.95) scale(1,-1) scale(0.56) " font-family="Helvetica,sans-serif" font-size="20px" stroke="none" fill="black" >Misc Tech Reading</text>
<rect x="95" y="-1291" width="130" height="465" stroke-width="1.8824" />
<text transform="translate(145.68,-1062.5) scale(1,-1) scale(0.56) " font-family="Helvetica,sans-serif" font-size="20px" stroke="none" fill="black" >Sleep</text>
<rect x="245" y="122" width="130" height="27" stroke-width="1.8824" />
<text transform="translate(273.9,131.55) scale(1,-1) scale(0.56) " font-family="Helvetica,sans-serif" font-size="20px" stroke="none" fill="black" >Daily Routines</text>
<rect x="245" y="108" width="130" height="14" stroke-width="1.8824" />
<text transform="translate(292.57,111.05) scale(1,-1) scale(0.56) " font-family="Helvetica,sans-serif" font-size="20px" stroke="none" fill="black" >Breaks</text>
<rect x="245" y="77" width="130" height="26" stroke-width="1.8824" />
<text transform="translate(267.37,92.766) scale(1,-1) scale(0.56) " font-family="Helvetica,sans-serif" font-size="20px" stroke="none" fill="black" >Impl Distrib JStar</text>
<text transform="translate(296.62,79.326) scale(1,-1) scale(0.56) " font-family="Helvetica,sans-serif" font-size="20px" stroke="none" fill="black" >Chap</text>
<rect x="245" y="45" width="130" height="29" stroke-width="1.8824" />
<text transform="translate(273.9,55.546) scale(1,-1) scale(0.56) " font-family="Helvetica,sans-serif" font-size="20px" stroke="none" fill="black" >Daily Routines</text>
<rect x="245" y="2" width="130" height="37" stroke-width="1.8824" />
<text transform="translate(267.37,23.266) scale(1,-1) scale(0.56) " font-family="Helvetica,sans-serif" font-size="20px" stroke="none" fill="black" >Impl Distrib JStar</text>
<text transform="translate(296.62,9.8264) scale(1,-1) scale(0.56) " font-family="Helvetica,sans-serif" font-size="20px" stroke="none" fill="black" >Chap</text>
<rect x="245" y="-26" width="130" height="28" stroke-width="1.8824" />
<text transform="translate(292.57,-15.954) scale(1,-1) scale(0.56) " font-family="Helvetica,sans-serif" font-size="20px" stroke="none" fill="black" >Breaks</text>
<rect x="245" y="-51" width="130" height="25" stroke-width="1.8824" />
<text transform="translate(292.57,-42.454) scale(1,-1) scale(0.56) " font-family="Helvetica,sans-serif" font-size="20px" stroke="none" fill="black" >Breaks</text>
<rect x="245" y="-113" width="130" height="57" stroke-width="1.8824" />
<text transform="translate(267.37,-81.734) scale(1,-1) scale(0.56) " font-family="Helvetica,sans-serif" font-size="20px" stroke="none" fill="black" >Impl Distrib JStar</text>
<text transform="translate(296.62,-95.174) scale(1,-1) scale(0.56) " font-family="Helvetica,sans-serif" font-size="20px" stroke="none" fill="black" >Chap</text>
<rect x="245" y="-147" width="130" height="23" stroke-width="1.8824" />
<text transform="translate(267.37,-132.73) scale(1,-1) scale(0.56) " font-family="Helvetica,sans-serif" font-size="20px" stroke="none" fill="black" >Impl Distrib JStar</text>
<text transform="translate(296.62,-146.17) scale(1,-1) scale(0.56) " font-family="Helvetica,sans-serif" font-size="20px" stroke="none" fill="black" >Chap</text>
<rect x="245" y="-169" width="130" height="17" stroke-width="1.8824" />
<text transform="translate(267.37,-157.73) scale(1,-1) scale(0.56) " font-family="Helvetica,sans-serif" font-size="20px" stroke="none" fill="black" >Impl Distrib JStar</text>
<text transform="translate(296.62,-171.17) scale(1,-1) scale(0.56) " font-family="Helvetica,sans-serif" font-size="20px" stroke="none" fill="black" >Chap</text>
<rect x="245" y="-191" width="130" height="20" stroke-width="1.8824" />
<text transform="translate(292.57,-184.95) scale(1,-1) scale(0.56) " font-family="Helvetica,sans-serif" font-size="20px" stroke="none" fill="black" >Breaks</text>
<rect x="245" y="-207" width="130" height="16" stroke-width="1.8824" />
<text transform="translate(292.57,-202.95) scale(1,-1) scale(0.56) " font-family="Helvetica,sans-serif" font-size="20px" stroke="none" fill="black" >Breaks</text>
<rect x="245" y="-222" width="130" height="15" stroke-width="1.8824" />
<text transform="translate(292.57,-218.45) scale(1,-1) scale(0.56) " font-family="Helvetica,sans-serif" font-size="20px" stroke="none" fill="black" >Breaks</text>
<rect x="245" y="-272" width="130" height="45" stroke-width="1.8824" />
<text transform="translate(267.37,-246.73) scale(1,-1) scale(0.56) " font-family="Helvetica,sans-serif" font-size="20px" stroke="none" fill="black" >Impl Distrib JStar</text>
<text transform="translate(296.62,-260.17) scale(1,-1) scale(0.56) " font-family="Helvetica,sans-serif" font-size="20px" stroke="none" fill="black" >Chap</text>
<rect x="245" y="-285" width="130" height="13" stroke-width="1.8824" />
<text transform="translate(267.37,-275.73) scale(1,-1) scale(0.56) " font-family="Helvetica,sans-serif" font-size="20px" stroke="none" fill="black" >Impl Distrib JStar</text>
<text transform="translate(296.62,-289.17) scale(1,-1) scale(0.56) " font-family="Helvetica,sans-serif" font-size="20px" stroke="none" fill="black" >Chap</text>
<rect x="245" y="-320" width="130" height="19" stroke-width="1.8824" />
<text transform="translate(292.57,-314.45) scale(1,-1) scale(0.56) " font-family="Helvetica,sans-serif" font-size="20px" stroke="none" fill="black" >Breaks</text>
<rect x="245" y="-353" width="130" height="30" stroke-width="1.8824" />
<text transform="translate(267.37,-335.23) scale(1,-1) scale(0.56) " font-family="Helvetica,sans-serif" font-size="20px" stroke="none" fill="black" >Impl Distrib JStar</text>
<text transform="translate(296.62,-348.67) scale(1,-1) scale(0.56) " font-family="Helvetica,sans-serif" font-size="20px" stroke="none" fill="black" >Chap</text>
<rect x="245" y="-372" width="130" height="13" stroke-width="1.8824" />
<text transform="translate(267.37,-362.73) scale(1,-1) scale(0.56) " font-family="Helvetica,sans-serif" font-size="20px" stroke="none" fill="black" >Impl Distrib JStar</text>
<text transform="translate(296.62,-376.17) scale(1,-1) scale(0.56) " font-family="Helvetica,sans-serif" font-size="20px" stroke="none" fill="black" >Chap</text>
<rect x="245" y="-402" width="130" height="28" stroke-width="1.8824" />
<text transform="translate(292.57,-391.95) scale(1,-1) scale(0.56) " font-family="Helvetica,sans-serif" font-size="20px" stroke="none" fill="black" >Breaks</text>
<rect x="245" y="-433" width="130" height="28" stroke-width="1.8824" />
<text transform="translate(267.37,-416.23) scale(1,-1) scale(0.56) " font-family="Helvetica,sans-serif" font-size="20px" stroke="none" fill="black" >Impl Distrib JStar</text>
<text transform="translate(296.62,-429.67) scale(1,-1) scale(0.56) " font-family="Helvetica,sans-serif" font-size="20px" stroke="none" fill="black" >Chap</text>
<rect x="245" y="-467" width="130" height="34" stroke-width="1.8824" />
<text transform="translate(267.37,-447.23) scale(1,-1) scale(0.56) " font-family="Helvetica,sans-serif" font-size="20px" stroke="none" fill="black" >Impl Distrib JStar</text>
<text transform="translate(296.62,-460.67) scale(1,-1) scale(0.56) " font-family="Helvetica,sans-serif" font-size="20px" stroke="none" fill="black" >Chap</text>
<rect x="245" y="-501" width="130" height="24" stroke-width="1.8824" />
<text transform="translate(292.57,-492.95) scale(1,-1) scale(0.56) " font-family="Helvetica,sans-serif" font-size="20px" stroke="none" fill="black" >Breaks</text>
<rect x="245" y="-523" width="130" height="22" stroke-width="1.8824" />
<text transform="translate(292.57,-515.95) scale(1,-1) scale(0.56) " font-family="Helvetica,sans-serif" font-size="20px" stroke="none" fill="black" >Breaks</text>
<rect x="245" y="-572" width="130" height="49" stroke-width="1.8824" />
<text transform="translate(264.87,-544.73) scale(1,-1) scale(0.56) " font-family="Helvetica,sans-serif" font-size="20px" stroke="none" fill="black" >Create 500 Series</text>
<text transform="translate(291.32,-558.17) scale(1,-1) scale(0.56) " font-family="Helvetica,sans-serif" font-size="20px" stroke="none" fill="black" >printout</text>
<rect x="245" y="-686" width="130" height="96" stroke-width="1.8824" />
<text transform="translate(273.9,-641.95) scale(1,-1) scale(0.56) " font-family="Helvetica,sans-serif" font-size="20px" stroke="none" fill="black" >Daily Routines</text>
<rect x="245" y="-723" width="130" height="34" stroke-width="1.8824" />
<text transform="translate(293.51,-709.95) scale(1,-1) scale(0.56) " font-family="Helvetica,sans-serif" font-size="20px" stroke="none" fill="black" >Comm</text>
<rect x="245" y="-738" width="130" height="15" stroke-width="1.8824" />
<text transform="translate(292.57,-734.45) scale(1,-1) scale(0.56) " font-family="Helvetica,sans-serif" font-size="20px" stroke="none" fill="black" >Breaks</text>
<rect x="245" y="-796" width="130" height="40" stroke-width="1.8824" />
<text transform="translate(290.09,-779.95) scale(1,-1) scale(0.56) " font-family="Helvetica,sans-serif" font-size="20px" stroke="none" fill="black" >Walking</text>
<rect x="245" y="-1277" width="130" height="443" stroke-width="1.8824" />
<text transform="translate(295.68,-1059.5) scale(1,-1) scale(0.56) " font-family="Helvetica,sans-serif" font-size="20px" stroke="none" fill="black" >Sleep</text>
<rect x="395" y="135" width="130" height="28" stroke-width="1.8824" />
<text transform="translate(423.9,145.05) scale(1,-1) scale(0.56) " font-family="Helvetica,sans-serif" font-size="20px" stroke="none" fill="black" >Daily Routines</text>
<rect x="395" y="76" width="130" height="59" stroke-width="1.8824" />
<text transform="translate(417.37,108.27) scale(1,-1) scale(0.56) " font-family="Helvetica,sans-serif" font-size="20px" stroke="none" fill="black" >Impl Distrib JStar</text>
<text transform="translate(446.62,94.826) scale(1,-1) scale(0.56) " font-family="Helvetica,sans-serif" font-size="20px" stroke="none" fill="black" >Chap</text>
<rect x="395" y="32" width="130" height="35" stroke-width="1.8824" />
<text transform="translate(417.37,52.266) scale(1,-1) scale(0.56) " font-family="Helvetica,sans-serif" font-size="20px" stroke="none" fill="black" >Impl Distrib JStar</text>
<text transform="translate(446.62,38.826) scale(1,-1) scale(0.56) " font-family="Helvetica,sans-serif" font-size="20px" stroke="none" fill="black" >Chap</text>
<rect x="395" y="6" width="130" height="24" stroke-width="1.8824" />
<text transform="translate(442.57,14.046) scale(1,-1) scale(0.56) " font-family="Helvetica,sans-serif" font-size="20px" stroke="none" fill="black" >Breaks</text>
<rect x="395" y="-25" width="130" height="31" stroke-width="1.8824" />
<text transform="translate(423.9,-13.454) scale(1,-1) scale(0.56) " font-family="Helvetica,sans-serif" font-size="20px" stroke="none" fill="black" >Daily Routines</text>
<rect x="395" y="-63" width="130" height="38" stroke-width="1.8824" />
<text transform="translate(423.9,-47.954) scale(1,-1) scale(0.56) " font-family="Helvetica,sans-serif" font-size="20px" stroke="none" fill="black" >Time Manager</text>
<rect x="395" y="-81" width="130" height="18" stroke-width="1.8824" />
<text transform="translate(442.57,-75.954) scale(1,-1) scale(0.56) " font-family="Helvetica,sans-serif" font-size="20px" stroke="none" fill="black" >Breaks</text>
<rect x="395" y="-108" width="130" height="24" stroke-width="1.8824" />
<text transform="translate(417.37,-93.234) scale(1,-1) scale(0.56) " font-family="Helvetica,sans-serif" font-size="20px" stroke="none" fill="black" >Impl Distrib JStar</text>
<text transform="translate(446.62,-106.67) scale(1,-1) scale(0.56) " font-family="Helvetica,sans-serif" font-size="20px" stroke="none" fill="black" >Chap</text>
<rect x="395" y="-155" width="130" height="47" stroke-width="1.8824" />
<text transform="translate(440.08,-135.45) scale(1,-1) scale(0.56) " font-family="Helvetica,sans-serif" font-size="20px" stroke="none" fill="black" >General</text>
<rect x="395" y="-177" width="130" height="20" stroke-width="1.8824" />
<text transform="translate(417.37,-164.23) scale(1,-1) scale(0.56) " font-family="Helvetica,sans-serif" font-size="20px" stroke="none" fill="black" >Impl Distrib JStar</text>
<text transform="translate(446.62,-177.67) scale(1,-1) scale(0.56) " font-family="Helvetica,sans-serif" font-size="20px" stroke="none" fill="black" >Chap</text>
<rect x="395" y="-230" width="130" height="46" stroke-width="1.8824" />
<text transform="translate(417.37,-204.23) scale(1,-1) scale(0.56) " font-family="Helvetica,sans-serif" font-size="20px" stroke="none" fill="black" >Impl Distrib JStar</text>
<text transform="translate(446.62,-217.67) scale(1,-1) scale(0.56) " font-family="Helvetica,sans-serif" font-size="20px" stroke="none" fill="black" >Chap</text>
<rect x="395" y="-283" width="130" height="53" stroke-width="1.8824" />
<text transform="translate(442.57,-260.45) scale(1,-1) scale(0.56) " font-family="Helvetica,sans-serif" font-size="20px" stroke="none" fill="black" >Breaks</text>
<rect x="395" y="-341" width="130" height="55" stroke-width="1.8824" />
<text transform="translate(417.37,-310.73) scale(1,-1) scale(0.56) " font-family="Helvetica,sans-serif" font-size="20px" stroke="none" fill="black" >Impl Distrib JStar</text>
<text transform="translate(446.62,-324.17) scale(1,-1) scale(0.56) " font-family="Helvetica,sans-serif" font-size="20px" stroke="none" fill="black" >Chap</text>
<rect x="395" y="-363" width="130" height="22" stroke-width="1.8824" />
<text transform="translate(417.37,-349.23) scale(1,-1) scale(0.56) " font-family="Helvetica,sans-serif" font-size="20px" stroke="none" fill="black" >Impl Distrib JStar</text>
<text transform="translate(446.62,-362.67) scale(1,-1) scale(0.56) " font-family="Helvetica,sans-serif" font-size="20px" stroke="none" fill="black" >Chap</text>
<rect x="395" y="-388" width="130" height="16" stroke-width="1.8824" />
<text transform="translate(417.37,-377.23) scale(1,-1) scale(0.56) " font-family="Helvetica,sans-serif" font-size="20px" stroke="none" fill="black" >Impl Distrib JStar</text>
<text transform="translate(446.62,-390.67) scale(1,-1) scale(0.56) " font-family="Helvetica,sans-serif" font-size="20px" stroke="none" fill="black" >Chap</text>
<rect x="395" y="-402" width="130" height="14" stroke-width="1.8824" />
<text transform="translate(423.9,-398.95) scale(1,-1) scale(0.56) " font-family="Helvetica,sans-serif" font-size="20px" stroke="none" fill="black" >Daily Routines</text>
<rect x="395" y="-563" width="130" height="148" stroke-width="1.8824" />
<text transform="translate(442.57,-492.95) scale(1,-1) scale(0.56) " font-family="Helvetica,sans-serif" font-size="20px" stroke="none" fill="black" >Breaks</text>
<rect x="395" y="-431" width="130" height="15" stroke-width="1.8824" />
<text transform="translate(442.57,-427.45) scale(1,-1) scale(0.56) " font-family="Helvetica,sans-serif" font-size="20px" stroke="none" fill="black" >Breaks</text>
<rect x="395" y="-459" width="130" height="28" stroke-width="1.8824" />
<text transform="translate(440.08,-448.95) scale(1,-1) scale(0.56) " font-family="Helvetica,sans-serif" font-size="20px" stroke="none" fill="black" >General</text>
<rect x="395" y="-588" width="130" height="25" stroke-width="1.8824" />
<text transform="translate(422.96,-579.45) scale(1,-1) scale(0.56) " font-family="Helvetica,sans-serif" font-size="20px" stroke="none" fill="black" >C5?? Wedding</text>
<rect x="395" y="-620" width="130" height="22" stroke-width="1.8824" />
<text transform="translate(422.96,-612.95) scale(1,-1) scale(0.56) " font-family="Helvetica,sans-serif" font-size="20px" stroke="none" fill="black" >C5?? Wedding</text>
<rect x="395" y="-645" width="130" height="25" stroke-width="1.8824" />
<text transform="translate(422.96,-636.45) scale(1,-1) scale(0.56) " font-family="Helvetica,sans-serif" font-size="20px" stroke="none" fill="black" >C5?? Wedding</text>
<rect x="395" y="-697" width="130" height="52" stroke-width="1.8824" />
<text transform="translate(423.9,-674.95) scale(1,-1) scale(0.56) " font-family="Helvetica,sans-serif" font-size="20px" stroke="none" fill="black" >Daily Routines</text>
<rect x="395" y="-725" width="130" height="28" stroke-width="1.8824" />
<text transform="translate(442.57,-714.95) scale(1,-1) scale(0.56) " font-family="Helvetica,sans-serif" font-size="20px" stroke="none" fill="black" >Breaks</text>
<rect x="395" y="-766" width="130" height="41" stroke-width="1.8824" />
<text transform="translate(409.89,-749.45) scale(1,-1) scale(0.56) " font-family="Helvetica,sans-serif" font-size="20px" stroke="none" fill="black" >Stanford DB Course</text>
<rect x="395" y="-782" width="130" height="16" stroke-width="1.8824" />
<text transform="translate(442.57,-777.95) scale(1,-1) scale(0.56) " font-family="Helvetica,sans-serif" font-size="20px" stroke="none" fill="black" >Breaks</text>
<rect x="395" y="-1277" width="130" height="495" stroke-width="1.8824" />
<text transform="translate(445.68,-1033.5) scale(1,-1) scale(0.56) " font-family="Helvetica,sans-serif" font-size="20px" stroke="none" fill="black" >Sleep</text>
<rect x="545" y="103" width="130" height="56" stroke-width="1.8824" />
<text transform="translate(559.89,127.05) scale(1,-1) scale(0.56) " font-family="Helvetica,sans-serif" font-size="20px" stroke="none" fill="black" >Stanford DB Course</text>
<rect x="545" y="64" width="130" height="31" stroke-width="1.8824" />
<text transform="translate(573.9,75.546) scale(1,-1) scale(0.56) " font-family="Helvetica,sans-serif" font-size="20px" stroke="none" fill="black" >Daily Routines</text>
<rect x="545" y="28" width="130" height="34" stroke-width="1.8824" />
<text transform="translate(573.9,41.046) scale(1,-1) scale(0.56) " font-family="Helvetica,sans-serif" font-size="20px" stroke="none" fill="black" >Daily Routines</text>
<rect x="545" y="14" width="130" height="14" stroke-width="1.8824" />
<text transform="translate(592.57,17.046) scale(1,-1) scale(0.56) " font-family="Helvetica,sans-serif" font-size="20px" stroke="none" fill="black" >Breaks</text>
<rect x="545" y="-10" width="130" height="13" stroke-width="1.8824" />
<text transform="translate(567.37,-0.7336) scale(1,-1) scale(0.56) " font-family="Helvetica,sans-serif" font-size="20px" stroke="none" fill="black" >Impl Distrib JStar</text>
<text transform="translate(596.62,-14.174) scale(1,-1) scale(0.56) " font-family="Helvetica,sans-serif" font-size="20px" stroke="none" fill="black" >Chap</text>
<rect x="545" y="-60" width="130" height="29" stroke-width="1.8824" />
<text transform="translate(567.37,-42.734) scale(1,-1) scale(0.56) " font-family="Helvetica,sans-serif" font-size="20px" stroke="none" fill="black" >Impl Distrib JStar</text>
<text transform="translate(596.62,-56.174) scale(1,-1) scale(0.56) " font-family="Helvetica,sans-serif" font-size="20px" stroke="none" fill="black" >Chap</text>
<rect x="545" y="-142" width="130" height="64" stroke-width="1.8824" />
<text transform="translate(592.57,-113.95) scale(1,-1) scale(0.56) " font-family="Helvetica,sans-serif" font-size="20px" stroke="none" fill="black" >Breaks</text>
<rect x="545" y="-179" width="130" height="37" stroke-width="1.8824" />
<text transform="translate(592.57,-164.45) scale(1,-1) scale(0.56) " font-family="Helvetica,sans-serif" font-size="20px" stroke="none" fill="black" >Breaks</text>
<rect x="545" y="-269" width="130" height="90" stroke-width="1.8824" />
<text transform="translate(592.57,-227.95) scale(1,-1) scale(0.56) " font-family="Helvetica,sans-serif" font-size="20px" stroke="none" fill="black" >Breaks</text>
<rect x="545" y="-295" width="130" height="15" stroke-width="1.8824" />
<text transform="translate(567.37,-284.73) scale(1,-1) scale(0.56) " font-family="Helvetica,sans-serif" font-size="20px" stroke="none" fill="black" >Impl Distrib JStar</text>
<text transform="translate(596.62,-298.17) scale(1,-1) scale(0.56) " font-family="Helvetica,sans-serif" font-size="20px" stroke="none" fill="black" >Chap</text>
<rect x="545" y="-331" width="130" height="31" stroke-width="1.8824" />
<text transform="translate(567.37,-312.73) scale(1,-1) scale(0.56) " font-family="Helvetica,sans-serif" font-size="20px" stroke="none" fill="black" >Impl Distrib JStar</text>
<text transform="translate(596.62,-326.17) scale(1,-1) scale(0.56) " font-family="Helvetica,sans-serif" font-size="20px" stroke="none" fill="black" >Chap</text>
<rect x="545" y="-359" width="130" height="22" stroke-width="1.8824" />
<text transform="translate(567.37,-345.23) scale(1,-1) scale(0.56) " font-family="Helvetica,sans-serif" font-size="20px" stroke="none" fill="black" >Impl Distrib JStar</text>
<text transform="translate(596.62,-358.67) scale(1,-1) scale(0.56) " font-family="Helvetica,sans-serif" font-size="20px" stroke="none" fill="black" >Chap</text>
<rect x="545" y="-375" width="130" height="14" stroke-width="1.8824" />
<text transform="translate(592.57,-371.95) scale(1,-1) scale(0.56) " font-family="Helvetica,sans-serif" font-size="20px" stroke="none" fill="black" >Breaks</text>
<rect x="545" y="-389" width="130" height="13" stroke-width="1.8824" />
<text transform="translate(567.37,-379.73) scale(1,-1) scale(0.56) " font-family="Helvetica,sans-serif" font-size="20px" stroke="none" fill="black" >Impl Distrib JStar</text>
<text transform="translate(596.62,-393.17) scale(1,-1) scale(0.56) " font-family="Helvetica,sans-serif" font-size="20px" stroke="none" fill="black" >Chap</text>
<rect x="545" y="-518" width="130" height="117" stroke-width="1.8824" />
<text transform="translate(592.57,-463.45) scale(1,-1) scale(0.56) " font-family="Helvetica,sans-serif" font-size="20px" stroke="none" fill="black" >Breaks</text>
<rect x="545" y="-676" width="130" height="158" stroke-width="1.8824" />
<text transform="translate(592.57,-600.95) scale(1,-1) scale(0.56) " font-family="Helvetica,sans-serif" font-size="20px" stroke="none" fill="black" >Breaks</text>
<rect x="545" y="-711" width="130" height="35" stroke-width="1.8824" />
<text transform="translate(593.51,-697.45) scale(1,-1) scale(0.56) " font-family="Helvetica,sans-serif" font-size="20px" stroke="none" fill="black" >Comm</text>
<rect x="545" y="-814" width="130" height="98" stroke-width="1.8824" />
<text transform="translate(573.9,-768.95) scale(1,-1) scale(0.56) " font-family="Helvetica,sans-serif" font-size="20px" stroke="none" fill="black" >Daily Routines</text>
<rect x="545" y="-1301" width="130" height="486" stroke-width="1.8824" />
<text transform="translate(595.68,-1062) scale(1,-1) scale(0.56) " font-family="Helvetica,sans-serif" font-size="20px" stroke="none" fill="black" >Sleep</text>
<rect x="695" y="120" width="130" height="19" stroke-width="1.8824" />
<text transform="translate(723.9,125.55) scale(1,-1) scale(0.56) " font-family="Helvetica,sans-serif" font-size="20px" stroke="none" fill="black" >Daily Routines</text>
<rect x="695" y="84" width="130" height="36" stroke-width="1.8824" />
<text transform="translate(742.57,98.046) scale(1,-1) scale(0.56) " font-family="Helvetica,sans-serif" font-size="20px" stroke="none" fill="black" >Breaks</text>
<rect x="695" y="43" width="130" height="41" stroke-width="1.8824" />
<text transform="translate(723.9,59.546) scale(1,-1) scale(0.56) " font-family="Helvetica,sans-serif" font-size="20px" stroke="none" fill="black" >Daily Routines</text>
<rect x="695" y="-14" width="130" height="55" stroke-width="1.8824" />
<text transform="translate(742.57,9.5464) scale(1,-1) scale(0.56) " font-family="Helvetica,sans-serif" font-size="20px" stroke="none" fill="black" >Breaks</text>
<rect x="695" y="-239" width="130" height="223" stroke-width="1.8824" />
<text transform="translate(742.57,-131.45) scale(1,-1) scale(0.56) " font-family="Helvetica,sans-serif" font-size="20px" stroke="none" fill="black" >Breaks</text>
<rect x="695" y="-275" width="130" height="36" stroke-width="1.8824" />
<text transform="translate(742.57,-260.95) scale(1,-1) scale(0.56) " font-family="Helvetica,sans-serif" font-size="20px" stroke="none" fill="black" >Breaks</text>
<rect x="695" y="-346" width="130" height="66" stroke-width="1.8824" />
<text transform="translate(717.37,-310.23) scale(1,-1) scale(0.56) " font-family="Helvetica,sans-serif" font-size="20px" stroke="none" fill="black" >Impl Distrib JStar</text>
<text transform="translate(746.62,-323.67) scale(1,-1) scale(0.56) " font-family="Helvetica,sans-serif" font-size="20px" stroke="none" fill="black" >Chap</text>
<rect x="695" y="-368" width="130" height="22" stroke-width="1.8824" />
<text transform="translate(742.57,-360.95) scale(1,-1) scale(0.56) " font-family="Helvetica,sans-serif" font-size="20px" stroke="none" fill="black" >Breaks</text>
<rect x="695" y="-406" width="130" height="31" stroke-width="1.8824" />
<text transform="translate(717.37,-387.73) scale(1,-1) scale(0.56) " font-family="Helvetica,sans-serif" font-size="20px" stroke="none" fill="black" >Impl Distrib JStar</text>
<text transform="translate(746.62,-401.17) scale(1,-1) scale(0.56) " font-family="Helvetica,sans-serif" font-size="20px" stroke="none" fill="black" >Chap</text>
<rect x="695" y="-425" width="130" height="19" stroke-width="1.8824" />
<text transform="translate(740.08,-419.45) scale(1,-1) scale(0.56) " font-family="Helvetica,sans-serif" font-size="20px" stroke="none" fill="black" >General</text>
<rect x="695" y="-481" width="130" height="18" stroke-width="1.8824" />
<text transform="translate(740.08,-475.95) scale(1,-1) scale(0.56) " font-family="Helvetica,sans-serif" font-size="20px" stroke="none" fill="black" >General</text>
<rect x="695" y="-600" width="130" height="107" stroke-width="1.8824" />
<text transform="translate(742.57,-550.45) scale(1,-1) scale(0.56) " font-family="Helvetica,sans-serif" font-size="20px" stroke="none" fill="black" >Breaks</text>
<rect x="695" y="-677" width="130" height="77" stroke-width="1.8824" />
<text transform="translate(723.9,-642.45) scale(1,-1) scale(0.56) " font-family="Helvetica,sans-serif" font-size="20px" stroke="none" fill="black" >Daily Routines</text>
<rect x="695" y="-780" width="130" height="103" stroke-width="1.8824" />
<text transform="translate(744.44,-732.45) scale(1,-1) scale(0.56) " font-family="Helvetica,sans-serif" font-size="20px" stroke="none" fill="black" >Travel</text>
<rect x="695" y="-1568" width="130" height="776" stroke-width="1.8824" />
<text transform="translate(745.68,-1184) scale(1,-1) scale(0.56) " font-family="Helvetica,sans-serif" font-size="20px" stroke="none" fill="black" >Sleep</text>
<rect x="845" y="-169" width="130" height="41" stroke-width="1.8824" />
<text transform="translate(873.9,-152.45) scale(1,-1) scale(0.56) " font-family="Helvetica,sans-serif" font-size="20px" stroke="none" fill="black" >Daily Routines</text>
<rect x="845" y="-267" width="130" height="98" stroke-width="1.8824" />
<text transform="translate(873.9,-221.95) scale(1,-1) scale(0.56) " font-family="Helvetica,sans-serif" font-size="20px" stroke="none" fill="black" >Daily Routines</text>
<rect x="845" y="-281" width="130" height="14" stroke-width="1.8824" />
<text transform="translate(892.57,-277.95) scale(1,-1) scale(0.56) " font-family="Helvetica,sans-serif" font-size="20px" stroke="none" fill="black" >Breaks</text>
<rect x="845" y="-300" width="130" height="19" stroke-width="1.8824" />
<text transform="translate(868.91,-287.73) scale(1,-1) scale(0.56) " font-family="Helvetica,sans-serif" font-size="20px" stroke="none" fill="black" >Life Chap: Show</text>
<text transform="translate(869.55,-301.17) scale(1,-1) scale(0.56) " font-family="Helvetica,sans-serif" font-size="20px" stroke="none" fill="black" >Transformations</text>
<rect x="845" y="-333" width="130" height="28" stroke-width="1.8824" />
<text transform="translate(868.91,-316.23) scale(1,-1) scale(0.56) " font-family="Helvetica,sans-serif" font-size="20px" stroke="none" fill="black" >Life Chap: Show</text>
<text transform="translate(869.55,-329.67) scale(1,-1) scale(0.56) " font-family="Helvetica,sans-serif" font-size="20px" stroke="none" fill="black" >Transformations</text>
<rect x="845" y="-365" width="130" height="15" stroke-width="1.8824" />
<text transform="translate(868.91,-354.73) scale(1,-1) scale(0.56) " font-family="Helvetica,sans-serif" font-size="20px" stroke="none" fill="black" >Life Chap: Show</text>
<text transform="translate(869.55,-368.17) scale(1,-1) scale(0.56) " font-family="Helvetica,sans-serif" font-size="20px" stroke="none" fill="black" >Transformations</text>
<rect x="845" y="-400" width="130" height="35" stroke-width="1.8824" />
<text transform="translate(892.57,-386.45) scale(1,-1) scale(0.56) " font-family="Helvetica,sans-serif" font-size="20px" stroke="none" fill="black" >Breaks</text>
<rect x="845" y="-443" width="130" height="42" stroke-width="1.8824" />
<text transform="translate(868.91,-419.23) scale(1,-1) scale(0.56) " font-family="Helvetica,sans-serif" font-size="20px" stroke="none" fill="black" >Life Chap: Show</text>
<text transform="translate(869.55,-432.67) scale(1,-1) scale(0.56) " font-family="Helvetica,sans-serif" font-size="20px" stroke="none" fill="black" >Transformations</text>
<rect x="845" y="-463" width="130" height="19" stroke-width="1.8824" />
<text transform="translate(868.91,-450.73) scale(1,-1) scale(0.56) " font-family="Helvetica,sans-serif" font-size="20px" stroke="none" fill="black" >Life Chap: Show</text>
<text transform="translate(869.55,-464.17) scale(1,-1) scale(0.56) " font-family="Helvetica,sans-serif" font-size="20px" stroke="none" fill="black" >Transformations</text>
<rect x="845" y="-489" width="130" height="26" stroke-width="1.8824" />
<text transform="translate(892.57,-479.95) scale(1,-1) scale(0.56) " font-family="Helvetica,sans-serif" font-size="20px" stroke="none" fill="black" >Breaks</text>
<rect x="845" y="-513" width="130" height="18" stroke-width="1.8824" />
<text transform="translate(892.57,-507.95) scale(1,-1) scale(0.56) " font-family="Helvetica,sans-serif" font-size="20px" stroke="none" fill="black" >Breaks</text>
<rect x="845" y="-535" width="130" height="22" stroke-width="1.8824" />
<text transform="translate(868.91,-521.23) scale(1,-1) scale(0.56) " font-family="Helvetica,sans-serif" font-size="20px" stroke="none" fill="black" >Life Chap: Show</text>
<text transform="translate(869.55,-534.67) scale(1,-1) scale(0.56) " font-family="Helvetica,sans-serif" font-size="20px" stroke="none" fill="black" >Transformations</text>
<rect x="845" y="-708" width="130" height="167" stroke-width="1.8824" />
<text transform="translate(873.9,-628.45) scale(1,-1) scale(0.56) " font-family="Helvetica,sans-serif" font-size="20px" stroke="none" fill="black" >Daily Routines</text>
<rect x="845" y="-772" width="130" height="50" stroke-width="1.8824" />
<text transform="translate(890.09,-750.95) scale(1,-1) scale(0.56) " font-family="Helvetica,sans-serif" font-size="20px" stroke="none" fill="black" >Walking</text>
<rect x="995" y="-24" width="130" height="68" stroke-width="1.8824" />
<text transform="translate(1023.9,6.0464) scale(1,-1) scale(0.56) " font-family="Helvetica,sans-serif" font-size="20px" stroke="none" fill="black" >Daily Routines</text>
<rect x="995" y="-57" width="130" height="29" stroke-width="1.8824" />
<text transform="translate(1018.9,-39.734) scale(1,-1) scale(0.56) " font-family="Helvetica,sans-serif" font-size="20px" stroke="none" fill="black" >Life Chap: Show</text>
<text transform="translate(1019.5,-53.174) scale(1,-1) scale(0.56) " font-family="Helvetica,sans-serif" font-size="20px" stroke="none" fill="black" >Transformations</text>
<rect x="995" y="-86" width="130" height="28" stroke-width="1.8824" />
<text transform="translate(1018.9,-69.234) scale(1,-1) scale(0.56) " font-family="Helvetica,sans-serif" font-size="20px" stroke="none" fill="black" >Life Chap: Show</text>
<text transform="translate(1019.5,-82.674) scale(1,-1) scale(0.56) " font-family="Helvetica,sans-serif" font-size="20px" stroke="none" fill="black" >Transformations</text>
<rect x="995" y="-104" width="130" height="17" stroke-width="1.8824" />
<text transform="translate(1018.9,-92.734) scale(1,-1) scale(0.56) " font-family="Helvetica,sans-serif" font-size="20px" stroke="none" fill="black" >Life Chap: Show</text>
<text transform="translate(1019.5,-106.17) scale(1,-1) scale(0.56) " font-family="Helvetica,sans-serif" font-size="20px" stroke="none" fill="black" >Transformations</text>
<rect x="995" y="-182" width="130" height="73" stroke-width="1.8824" />
<text transform="translate(1042.6,-149.45) scale(1,-1) scale(0.56) " font-family="Helvetica,sans-serif" font-size="20px" stroke="none" fill="black" >Breaks</text>
<rect x="995" y="-203" width="130" height="21" stroke-width="1.8824" />
<text transform="translate(1042.6,-196.45) scale(1,-1) scale(0.56) " font-family="Helvetica,sans-serif" font-size="20px" stroke="none" fill="black" >Breaks</text>
<rect x="995" y="-254" width="130" height="49" stroke-width="1.8824" />
<text transform="translate(1018.9,-226.73) scale(1,-1) scale(0.56) " font-family="Helvetica,sans-serif" font-size="20px" stroke="none" fill="black" >Life Chap: Show</text>
<text transform="translate(1019.5,-240.17) scale(1,-1) scale(0.56) " font-family="Helvetica,sans-serif" font-size="20px" stroke="none" fill="black" >Transformations</text>
<rect x="995" y="-348" width="130" height="85" stroke-width="1.8824" />
<text transform="translate(1023.9,-309.45) scale(1,-1) scale(0.56) " font-family="Helvetica,sans-serif" font-size="20px" stroke="none" fill="black" >Daily Routines</text>
<rect x="995" y="-375" width="130" height="27" stroke-width="1.8824" />
<text transform="translate(1042.6,-365.45) scale(1,-1) scale(0.56) " font-family="Helvetica,sans-serif" font-size="20px" stroke="none" fill="black" >Breaks</text>
<rect x="995" y="-406" width="130" height="30" stroke-width="1.8824" />
<text transform="translate(1018.9,-388.23) scale(1,-1) scale(0.56) " font-family="Helvetica,sans-serif" font-size="20px" stroke="none" fill="black" >Life Chap: Show</text>
<text transform="translate(1019.5,-401.67) scale(1,-1) scale(0.56) " font-family="Helvetica,sans-serif" font-size="20px" stroke="none" fill="black" >Transformations</text>
<rect x="995" y="-445" width="130" height="18" stroke-width="1.8824" />
<text transform="translate(1018.9,-433.23) scale(1,-1) scale(0.56) " font-family="Helvetica,sans-serif" font-size="20px" stroke="none" fill="black" >Life Chap: Show</text>
<text transform="translate(1019.5,-446.67) scale(1,-1) scale(0.56) " font-family="Helvetica,sans-serif" font-size="20px" stroke="none" fill="black" >Transformations</text>
</g>
</svg>
