<?xml version="1.0" encoding="ISO-8859-1" standalone="no"?>
<!DOCTYPE svg PUBLIC "-//W3C//DTD SVG 1.1//EN" "http://www.w3.org/Graphics/SVG/1.1/DTD/svg11.dtd">
<svg version="1.1" baseProfile="full" id="body" width="19.812cm" height="19.812cm" viewBox="0 0 1 1" preserveAspectRatio="none" xmlns="http://www.w3.org/2000/svg" xmlns:xlink="http://www.w3.org/1999/xlink" xmlns:ev="http://www.w3.org/2001/xml-events">
<title>SVG drawing</title>
<desc>This was produced by version 4.4 of GNU libplot, a free library for exporting 2-D vector graphics.</desc>
<rect id="background" x="0" y="0" width="1" height="1" stroke="none" fill="white"/>
<g id="content" transform="translate(0.14062,0.24531) scale(1,-1) scale(0.000625) " xml:space="preserve" stroke="black" stroke-linecap="butt" stroke-linejoin="miter" stroke-miterlimit="10.433" stroke-dasharray="none" stroke-dashoffset="0" stroke-opacity="1" fill="none" fill-rule="evenodd" fill-opacity="1" font-style="normal" font-variant="normal" font-weight="normal" font-stretch="normal" font-size-adjust="none" letter-spacing="normal" word-spacing="normal" text-anchor="start">
<line x1="20" y1="0" x2="30" y2="0" stroke-width="1.8824" />
<text transform="translate(25,2.52) scale(1,-1) scale(0.56) " font-family="Helvetica,sans-serif" font-size="20px" stroke="none" fill="black" >8am</text>
<line x1="30" y1="0" x2="1130" y2="0" stroke-width="1.8824" stroke-dasharray="2.5, 7.5"/>
<line x1="20" y1="-120" x2="30" y2="-120" stroke-width="1.8824" />
<text transform="translate(25,-117.48) scale(1,-1) scale(0.56) " font-family="Helvetica,sans-serif" font-size="20px" stroke="none" fill="black" >10am</text>
<line x1="30" y1="-120" x2="1130" y2="-120" stroke-width="1.8824" stroke-dasharray="2.5, 7.5"/>
<line x1="20" y1="-240" x2="30" y2="-240" stroke-width="1.8824" />
<text transform="translate(25,-237.48) scale(1,-1) scale(0.56) " font-family="Helvetica,sans-serif" font-size="20px" stroke="none" fill="black" >12pm</text>
<line x1="30" y1="-240" x2="1130" y2="-240" stroke-width="1.8824" stroke-dasharray="2.5, 7.5"/>
<line x1="20" y1="-360" x2="30" y2="-360" stroke-width="1.8824" />
<text transform="translate(25,-357.48) scale(1,-1) scale(0.56) " font-family="Helvetica,sans-serif" font-size="20px" stroke="none" fill="black" >2pm</text>
<line x1="30" y1="-360" x2="1130" y2="-360" stroke-width="1.8824" stroke-dasharray="2.5, 7.5"/>
<line x1="20" y1="-480" x2="30" y2="-480" stroke-width="1.8824" />
<text transform="translate(25,-477.48) scale(1,-1) scale(0.56) " font-family="Helvetica,sans-serif" font-size="20px" stroke="none" fill="black" >4pm</text>
<line x1="30" y1="-480" x2="1130" y2="-480" stroke-width="1.8824" stroke-dasharray="2.5, 7.5"/>
<line x1="20" y1="-600" x2="30" y2="-600" stroke-width="1.8824" />
<text transform="translate(25,-597.48) scale(1,-1) scale(0.56) " font-family="Helvetica,sans-serif" font-size="20px" stroke="none" fill="black" >6pm</text>
<line x1="30" y1="-600" x2="1130" y2="-600" stroke-width="1.8824" stroke-dasharray="2.5, 7.5"/>
<line x1="20" y1="-720" x2="30" y2="-720" stroke-width="1.8824" />
<text transform="translate(25,-717.48) scale(1,-1) scale(0.56) " font-family="Helvetica,sans-serif" font-size="20px" stroke="none" fill="black" >8pm</text>
<line x1="30" y1="-720" x2="1130" y2="-720" stroke-width="1.8824" stroke-dasharray="2.5, 7.5"/>
<line x1="20" y1="-840" x2="30" y2="-840" stroke-width="1.8824" />
<text transform="translate(25,-837.48) scale(1,-1) scale(0.56) " font-family="Helvetica,sans-serif" font-size="20px" stroke="none" fill="black" >10pm</text>
<line x1="30" y1="-840" x2="1130" y2="-840" stroke-width="1.8824" stroke-dasharray="2.5, 7.5"/>
<line x1="20" y1="-960" x2="30" y2="-960" stroke-width="1.8824" />
<text transform="translate(25,-957.48) scale(1,-1) scale(0.56) " font-family="Helvetica,sans-serif" font-size="20px" stroke="none" fill="black" >12am</text>
<line x1="30" y1="-960" x2="1130" y2="-960" stroke-width="1.8824" stroke-dasharray="2.5, 7.5"/>
<rect x="150" y="115" width="20" height="30" stroke-width="1.8824" />
<text transform="translate(155.34,126.05) scale(1,-1) scale(0.56) " font-family="Helvetica,sans-serif" font-size="20px" stroke="none" fill="black" >M</text>
<rect x="300" y="115" width="20" height="30" stroke-width="1.8824" />
<text transform="translate(306.58,126.05) scale(1,-1) scale(0.56) " font-family="Helvetica,sans-serif" font-size="20px" stroke="none" fill="black" >T</text>
<rect x="450" y="115" width="20" height="30" stroke-width="1.8824" />
<text transform="translate(454.71,126.05) scale(1,-1) scale(0.56) " font-family="Helvetica,sans-serif" font-size="20px" stroke="none" fill="black" >W</text>
<rect x="600" y="115" width="20" height="30" stroke-width="1.8824" />
<text transform="translate(606.58,126.05) scale(1,-1) scale(0.56) " font-family="Helvetica,sans-serif" font-size="20px" stroke="none" fill="black" >T</text>
<rect x="750" y="115" width="20" height="30" stroke-width="1.8824" />
<text transform="translate(756.58,126.05) scale(1,-1) scale(0.56) " font-family="Helvetica,sans-serif" font-size="20px" stroke="none" fill="black" >F</text>
<rect x="900" y="115" width="20" height="30" stroke-width="1.8824" />
<text transform="translate(906.26,126.05) scale(1,-1) scale(0.56) " font-family="Helvetica,sans-serif" font-size="20px" stroke="none" fill="black" >S</text>
<rect x="1050" y="115" width="20" height="30" stroke-width="1.8824" />
<text transform="translate(1056.3,126.05) scale(1,-1) scale(0.56) " font-family="Helvetica,sans-serif" font-size="20px" stroke="none" fill="black" >S</text>
<rect x="95" y="-41" width="130" height="47" stroke-width="1.8824" />
<text transform="translate(139.77,-21.454) scale(1,-1) scale(0.56) " font-family="Helvetica,sans-serif" font-size="20px" stroke="none" fill="black" >Web/TV</text>
<rect x="95" y="-150" width="130" height="58" stroke-width="1.8824" />
<text transform="translate(139.77,-124.95) scale(1,-1) scale(0.56) " font-family="Helvetica,sans-serif" font-size="20px" stroke="none" fill="black" >Web/TV</text>
<rect x="95" y="-185" width="130" height="35" stroke-width="1.8824" />
<text transform="translate(139.77,-171.45) scale(1,-1) scale(0.56) " font-family="Helvetica,sans-serif" font-size="20px" stroke="none" fill="black" >Web/TV</text>
<rect x="95" y="-200" width="130" height="15" stroke-width="1.8824" />
<text transform="translate(139.77,-196.45) scale(1,-1) scale(0.56) " font-family="Helvetica,sans-serif" font-size="20px" stroke="none" fill="black" >Web/TV</text>
<rect x="95" y="-238" width="130" height="18" stroke-width="1.8824" />
<text transform="translate(130.74,-232.95) scale(1,-1) scale(0.56) " font-family="Helvetica,sans-serif" font-size="20px" stroke="none" fill="black" >Introduction</text>
<rect x="95" y="-271" width="130" height="33" stroke-width="1.8824" />
<text transform="translate(139.77,-258.45) scale(1,-1) scale(0.56) " font-family="Helvetica,sans-serif" font-size="20px" stroke="none" fill="black" >Web/TV</text>
<rect x="95" y="-383" width="130" height="97" stroke-width="1.8824" />
<text transform="translate(139.77,-338.45) scale(1,-1) scale(0.56) " font-family="Helvetica,sans-serif" font-size="20px" stroke="none" fill="black" >Web/TV</text>
<rect x="95" y="-514" width="130" height="39" stroke-width="1.8824" />
<text transform="translate(123.9,-498.45) scale(1,-1) scale(0.56) " font-family="Helvetica,sans-serif" font-size="20px" stroke="none" fill="black" >Time Manager</text>
<rect x="95" y="-589" width="130" height="53" stroke-width="1.8824" />
<text transform="translate(130.74,-566.45) scale(1,-1) scale(0.56) " font-family="Helvetica,sans-serif" font-size="20px" stroke="none" fill="black" >Introduction</text>
<rect x="95" y="-631" width="130" height="22" stroke-width="1.8824" />
<text transform="translate(112.08,-623.95) scale(1,-1) scale(0.56) " font-family="Helvetica,sans-serif" font-size="20px" stroke="none" fill="black" >Misc Tech Reading</text>
<rect x="245" y="-288" width="130" height="39" stroke-width="1.8824" />
<text transform="translate(262.08,-272.45) scale(1,-1) scale(0.56) " font-family="Helvetica,sans-serif" font-size="20px" stroke="none" fill="black" >Misc Tech Reading</text>
<rect x="245" y="-311" width="130" height="23" stroke-width="1.8824" />
<text transform="translate(289.77,-303.45) scale(1,-1) scale(0.56) " font-family="Helvetica,sans-serif" font-size="20px" stroke="none" fill="black" >Web/TV</text>
<rect x="245" y="-460" width="130" height="16" stroke-width="1.8824" />
<text transform="translate(273.9,-455.95) scale(1,-1) scale(0.56) " font-family="Helvetica,sans-serif" font-size="20px" stroke="none" fill="black" >Time Manager</text>
<rect x="245" y="-519" width="130" height="59" stroke-width="1.8824" />
<text transform="translate(273.9,-493.45) scale(1,-1) scale(0.56) " font-family="Helvetica,sans-serif" font-size="20px" stroke="none" fill="black" >Time Manager</text>
<rect x="245" y="-547" width="130" height="17" stroke-width="1.8824" />
<text transform="translate(273.9,-542.45) scale(1,-1) scale(0.56) " font-family="Helvetica,sans-serif" font-size="20px" stroke="none" fill="black" >Time Manager</text>
<rect x="245" y="-615" width="130" height="68" stroke-width="1.8824" />
<text transform="translate(262.08,-584.95) scale(1,-1) scale(0.56) " font-family="Helvetica,sans-serif" font-size="20px" stroke="none" fill="black" >Misc Tech Reading</text>
<rect x="245" y="-712" width="130" height="21" stroke-width="1.8824" />
<text transform="translate(289.77,-705.45) scale(1,-1) scale(0.56) " font-family="Helvetica,sans-serif" font-size="20px" stroke="none" fill="black" >Web/TV</text>
<rect x="245" y="-764" width="130" height="52" stroke-width="1.8824" />
<text transform="translate(273.9,-741.95) scale(1,-1) scale(0.56) " font-family="Helvetica,sans-serif" font-size="20px" stroke="none" fill="black" >Time Manager</text>
<rect x="245" y="-861" width="130" height="43" stroke-width="1.8824" />
<text transform="translate(262.08,-843.45) scale(1,-1) scale(0.56) " font-family="Helvetica,sans-serif" font-size="20px" stroke="none" fill="black" >Misc Tech Reading</text>
<rect x="245" y="-881" width="130" height="20" stroke-width="1.8824" />
<text transform="translate(265.5,-874.95) scale(1,-1) scale(0.56) " font-family="Helvetica,sans-serif" font-size="20px" stroke="none" fill="black" >Future Work Draft</text>
<rect x="245" y="-897" width="130" height="16" stroke-width="1.8824" />
<text transform="translate(289.77,-892.95) scale(1,-1) scale(0.56) " font-family="Helvetica,sans-serif" font-size="20px" stroke="none" fill="black" >Web/TV</text>
<rect x="245" y="-941" width="130" height="38" stroke-width="1.8824" />
<text transform="translate(289.77,-925.95) scale(1,-1) scale(0.56) " font-family="Helvetica,sans-serif" font-size="20px" stroke="none" fill="black" >Web/TV</text>
<rect x="395" y="-80" width="130" height="20" stroke-width="1.8824" />
<text transform="translate(415.81,-73.954) scale(1,-1) scale(0.56) " font-family="Helvetica,sans-serif" font-size="20px" stroke="none" fill="black" >Conclusions Draft</text>
<rect x="395" y="-130" width="130" height="40" stroke-width="1.8824" />
<text transform="translate(415.81,-113.95) scale(1,-1) scale(0.56) " font-family="Helvetica,sans-serif" font-size="20px" stroke="none" fill="black" >Conclusions Draft</text>
<rect x="395" y="-140" width="130" height="35" stroke-width="1.8824" />
<text transform="translate(415.81,-126.45) scale(1,-1) scale(0.56) " font-family="Helvetica,sans-serif" font-size="20px" stroke="none" fill="black" >Conclusions Draft</text>
<rect x="695" y="-226" width="130" height="32" stroke-width="1.8824" />
<text transform="translate(739.77,-213.95) scale(1,-1) scale(0.56) " font-family="Helvetica,sans-serif" font-size="20px" stroke="none" fill="black" >Web/TV</text>
<rect x="695" y="-271" width="130" height="45" stroke-width="1.8824" />
<text transform="translate(712.08,-252.45) scale(1,-1) scale(0.56) " font-family="Helvetica,sans-serif" font-size="20px" stroke="none" fill="black" >Misc Tech Reading</text>
<rect x="695" y="-344" width="130" height="73" stroke-width="1.8824" />
<text transform="translate(739.77,-311.45) scale(1,-1) scale(0.56) " font-family="Helvetica,sans-serif" font-size="20px" stroke="none" fill="black" >Web/TV</text>
<rect x="695" y="-344" width="130" height="24" stroke-width="1.8824" />
<text transform="translate(730.74,-335.95) scale(1,-1) scale(0.56) " font-family="Helvetica,sans-serif" font-size="20px" stroke="none" fill="black" >Introduction</text>
<rect x="695" y="-381" width="130" height="23" stroke-width="1.8824" />
<text transform="translate(723.9,-373.45) scale(1,-1) scale(0.56) " font-family="Helvetica,sans-serif" font-size="20px" stroke="none" fill="black" >Time Manager</text>
<rect x="695" y="-420" width="130" height="35" stroke-width="1.8824" />
<text transform="translate(723.9,-406.45) scale(1,-1) scale(0.56) " font-family="Helvetica,sans-serif" font-size="20px" stroke="none" fill="black" >Time Manager</text>
<rect x="695" y="-473" width="130" height="23" stroke-width="1.8824" />
<text transform="translate(730.74,-465.45) scale(1,-1) scale(0.56) " font-family="Helvetica,sans-serif" font-size="20px" stroke="none" fill="black" >Introduction</text>
<rect x="695" y="-492" width="130" height="14" stroke-width="1.8824" />
<text transform="translate(730.74,-488.95) scale(1,-1) scale(0.56) " font-family="Helvetica,sans-serif" font-size="20px" stroke="none" fill="black" >Introduction</text>
<rect x="695" y="-672" width="130" height="52" stroke-width="1.8824" />
<text transform="translate(713.63,-643.23) scale(1,-1) scale(0.56) " font-family="Helvetica,sans-serif" font-size="20px" stroke="none" fill="black" >Incorporate Mark&apos;s</text>
<text transform="translate(718.3,-656.67) scale(1,-1) scale(0.56) " font-family="Helvetica,sans-serif" font-size="20px" stroke="none" fill="black" >RW Suggestions</text>
<rect x="695" y="-741" width="130" height="50" stroke-width="1.8824" />
<text transform="translate(713.63,-713.23) scale(1,-1) scale(0.56) " font-family="Helvetica,sans-serif" font-size="20px" stroke="none" fill="black" >Incorporate Mark&apos;s</text>
<text transform="translate(718.3,-726.67) scale(1,-1) scale(0.56) " font-family="Helvetica,sans-serif" font-size="20px" stroke="none" fill="black" >RW Suggestions</text>
<rect x="845" y="-499" width="130" height="35" stroke-width="1.8824" />
<text transform="translate(863.63,-478.73) scale(1,-1) scale(0.56) " font-family="Helvetica,sans-serif" font-size="20px" stroke="none" fill="black" >Incorporate Mark&apos;s</text>
<text transform="translate(868.3,-492.17) scale(1,-1) scale(0.56) " font-family="Helvetica,sans-serif" font-size="20px" stroke="none" fill="black" >RW Suggestions</text>
<rect x="995" y="-863" width="130" height="16" stroke-width="1.8824" />
<text transform="translate(1039.8,-858.95) scale(1,-1) scale(0.56) " font-family="Helvetica,sans-serif" font-size="20px" stroke="none" fill="black" >Web/TV</text>
<rect x="995" y="-904" width="130" height="41" stroke-width="1.8824" />
<text transform="translate(1027.9,-887.45) scale(1,-1) scale(0.56) " font-family="Helvetica,sans-serif" font-size="20px" stroke="none" fill="black" >Project Euler</text>
<rect x="995" y="-946" width="130" height="20" stroke-width="1.8824" />
<text transform="translate(1039.8,-939.95) scale(1,-1) scale(0.56) " font-family="Helvetica,sans-serif" font-size="20px" stroke="none" fill="black" >Web/TV</text>
</g>
</svg>
